<svg xmlns="http://www.w3.org/2000/svg" viewBox="0 0 512 512">
  <defs>
    <linearGradient id="bg" x1="0" y1="0" x2="1" y2="1">
      <stop offset="0%" stop-color="#131b31"/>
      <stop offset="58%" stop-color="#263754"/>
      <stop offset="100%" stop-color="#181635"/>
    </linearGradient>
    <linearGradient id="outerA" x1="0" y1="0" x2="1" y2="1">
      <stop offset="0%" stop-color="#9ed9ff"/>
      <stop offset="100%" stop-color="#6f8cff"/>
    </linearGradient>
    <linearGradient id="innerA" x1="0" y1="0" x2="1" y2="1">
      <stop offset="0%" stop-color="#7da3dc"/>
      <stop offset="100%" stop-color="#4d69a6"/>
    </linearGradient>
    <linearGradient id="triangle" x1="0" y1="0" x2="1" y2="1">
      <stop offset="0%" stop-color="#dff2ff"/>
      <stop offset="100%" stop-color="#b5cef0"/>
    </linearGradient>
    <filter id="glow" x="-50%" y="-50%" width="200%" height="200%">
      <feGaussianBlur stdDeviation="12" result="blur"/>
      <feMerge>
        <feMergeNode in="blur"/>
        <feMergeNode in="SourceGraphic"/>
      </feMerge>
    </filter>
  </defs>

  <rect width="512" height="512" rx="104" fill="url(#bg)"/>

  <path d="M158 395L255 139C259 130 271 130 275 139L372 395"
        fill="none"
        stroke="url(#outerA)"
        stroke-width="28"
        stroke-linecap="round"
        stroke-linejoin="round"
        filter="url(#glow)"/>

  <path d="M203 395L229 316C232 306 240 300 250 300H278C288 300 296 306 299 316L325 395"
        fill="none"
        stroke="url(#innerA)"
        stroke-width="26"
        stroke-linecap="round"
        stroke-linejoin="round"/>

  <path d="M256 248L275 302H237Z" fill="url(#triangle)"/>

  <path d="M242 96L251 80C254 74 258 72 262 72C266 72 270 74 273 80L282 96"
        fill="none"
        stroke="#ffd366"
        stroke-width="12"
        stroke-linecap="round"
        stroke-linejoin="round"/>
</svg>
